<svg width="75" height="75" viewBox="0 0 75 75" fill="none" xmlns="http://www.w3.org/2000/svg">
<path d="M23.0468 52.4406L26.9531 47.5594L14.3781 37.5L26.9531 27.4406L23.0468 22.5594L7.42185 35.0594C7.05574 35.3521 6.76018 35.7235 6.55707 36.146C6.35396 36.5684 6.2485 37.0312 6.2485 37.5C6.2485 37.9687 6.35396 38.4315 6.55707 38.854C6.76018 39.2765 7.05574 39.6478 7.42185 39.9406L23.0468 52.4406ZM51.9531 22.5594L48.0468 27.4406L60.6218 37.5L48.0468 47.5594L51.9531 52.4406L67.5781 39.9406C67.9442 39.6478 68.2398 39.2765 68.4429 38.854C68.646 38.4315 68.7514 37.9687 68.7514 37.5C68.7514 37.0312 68.646 36.5684 68.4429 36.146C68.2398 35.7235 67.9442 35.3521 67.5781 35.0594L51.9531 22.5594ZM46.8 10.05L34.3 66.3L28.1968 64.9437L40.6968 8.69373L46.8 10.05Z" fill="#00C4F0"/>
</svg>
