<svg width="61" height="21" viewBox="0 0 61 21" fill="none" xmlns="http://www.w3.org/2000/svg">
<path d="M2.25 4.11L7.02 10.878H7.308L12.006 4.146V15H12.852V2.94H11.826L7.164 9.546L2.448 2.94H1.386V15H2.25V4.11ZM19.7823 15.126C22.3203 15.126 24.4083 13.074 24.4083 10.536C24.4083 7.998 22.3203 5.91 19.7823 5.91C17.2443 5.91 15.1563 7.998 15.1563 10.536C15.1563 13.074 17.2443 15.126 19.7823 15.126ZM19.7823 6.684C21.8703 6.684 23.5623 8.448 23.5623 10.536C23.5623 12.678 21.8163 14.334 19.7823 14.334C17.7123 14.334 16.0203 12.624 16.0203 10.536C16.0203 8.376 17.7483 6.684 19.7823 6.684ZM26.4113 15H27.2753V9.042C27.2753 8.088 28.3553 6.828 29.9213 6.72C30.6773 6.666 31.1993 6.756 31.9013 7.008L32.0453 6.108C31.5593 5.982 30.7853 5.856 30.1193 5.91C28.5713 6.036 27.6713 6.774 27.2753 7.764V6H26.4113V15ZM37.4998 15.126C39.1558 15.126 40.5958 14.244 41.3878 12.84L40.5778 12.624C39.8578 13.758 38.8138 14.316 37.4998 14.316C35.5018 14.316 34.0258 12.822 33.8818 10.842H41.9638C41.9638 10.716 41.9818 10.662 41.9818 10.5C41.9818 7.926 40.0018 5.91 37.4998 5.91C34.9798 5.91 33.0178 7.962 33.0178 10.536C33.0178 13.092 34.9798 15.126 37.4998 15.126ZM33.8818 10.176C34.0258 8.178 35.5558 6.684 37.4998 6.684C39.4438 6.684 40.9558 8.142 41.0998 10.176H33.8818Z" fill="#E2A100"/>
<path d="M47 11H60M60 11L57.0286 15M60 11L57.0286 7" stroke="#E2A100"/>
</svg>
